<svg role="img" xmlns="http://www.w3.org/2000/svg" viewBox="0 0 24 24">
  <title>Twitter icon</title>
  <path d="M23.996 4.575c-.929.405-1.926.678-2.978.802a5.23 5.23 0 002.29-2.887c-.955.546-2.019.94-3.147 1.162a5.192 5.192 0 00-8.425 4.98 15.046 15.046 0 01-10.949-5.556 5.185 5.185 0 00-.703 2.614c0 1.806.923 3.401 2.324 4.335a5.184 5.184 0 01-2.364-.648v.066c0 2.279 1.609 4.188 3.744 4.618a5.183 5.183 0 01-2.354.089 5.208 5.208 0 004.867 3.609 10.47 10.47 0 01-6.464 2.404c-.41 0-.82-.025-1.229-.074a14.77 14.77 0 007.969 2.275c9.53 0 14.705-7.895 14.705-14.755 0-.226 0-.452-.014-.677a10.417 10.417 0 002.568-2.68c-.924.53-1.942.9-3.013 1.08z"/>
</svg>
